<?xml version="1.0" standalone="no"?>
<!DOCTYPE svg PUBLIC "-//W3C//DTD SVG 20010904//EN"
 "http://www.w3.org/TR/2001/REC-SVG-20010904/DTD/svg10.dtd">
<svg version="1.0" xmlns="http://www.w3.org/2000/svg"
 width="512.000000pt" height="512.000000pt" viewBox="0 0 512.000000 512.000000"
 preserveAspectRatio="xMidYMid meet">
<metadata>
Created by potrace 1.13, written by Peter Selinger 2001-2015
</metadata>
<g transform="translate(0.000000,512.000000) scale(0.100000,-0.100000)"
fill="#000000" stroke="none">
<path d="M1138 4605 c-147 -54 -308 -258 -356 -450 -27 -106 -30 -133 -42
-315 -11 -170 -32 -264 -82 -370 -40 -82 -121 -166 -172 -175 -20 -4 -36 -12
-36 -19 0 -20 58 -113 92 -146 56 -57 98 -70 228 -70 l114 0 36 35 35 34 29
-55 c16 -30 61 -89 99 -130 l70 -75 37 -192 c79 -405 186 -734 265 -813 52
-52 101 -18 161 111 61 134 166 491 180 614 11 109 -13 314 -60 508 -24 99
-50 225 -57 279 -47 379 110 731 403 901 l78 46 -19 31 c-91 144 -245 265
-338 266 -57 0 -136 -24 -220 -66 l-82 -42 -74 39 c-78 41 -171 69 -222 68
-16 0 -47 -7 -67 -14z"/>
<path d="M3346 4605 c-101 -19 -199 -61 -280 -119 -57 -41 -146 -129 -146
-145 0 -3 21 -15 47 -25 25 -11 78 -41 118 -67 209 -140 344 -391 362 -670 7
-120 -6 -213 -63 -449 -35 -140 -48 -217 -55 -320 -11 -147 -33 -254 -74 -352
-15 -35 -28 -72 -28 -82 -3 -26 114 -123 204 -171 l71 -37 41 18 c111 50 236
152 314 258 l43 58 0 145 0 144 54 117 c77 167 95 229 111 387 10 103 22 163
44 225 105 298 112 319 117 396 8 108 -14 205 -72 324 -86 173 -248 304 -439
355 -88 23 -273 28 -369 10z"/>
<path d="M2457 4279 c-189 -16 -330 -80 -457 -208 -118 -118 -182 -249 -210
-421 -21 -139 -11 -231 56 -505 32 -131 47 -215 54 -310 6 -71 13 -146 16
-165 11 -71 57 -193 125 -326 l69 -136 0 -152 c0 -179 8 -203 109 -328 78 -97
318 -328 341 -328 23 0 268 235 343 330 99 123 107 148 107 327 l0 151 70 138
c101 199 118 258 135 454 11 126 25 209 59 348 25 101 50 220 57 264 23 160
-11 354 -88 501 -45 85 -161 210 -237 256 -154 92 -335 129 -549 110z"/>
<path d="M920 2298 c-79 -53 -136 -97 -138 -108 -2 -13 13 -29 53 -54 l55 -36
-56 -75 -56 -76 102 -181 c56 -100 121 -212 146 -250 l44 -68 122 61 c68 34
125 63 127 65 2 2 -20 54 -49 116 -68 145 -140 364 -180 548 -17 79 -32 145
-33 146 -1 2 -63 -38 -137 -88z"/>
<path d="M4000 2345 c-11 -25 -49 -92 -85 -150 -37 -58 -85 -146 -109 -195
-42 -89 -43 -90 -57 -64 -17 33 -123 118 -126 101 -10 -69 -17 -90 -39 -116
-19 -23 -22 -34 -16 -53 5 -12 17 -63 27 -111 l18 -88 50 -26 c58 -29 50 -33
129 78 58 81 120 201 162 311 29 78 86 299 86 334 0 38 -19 28 -40 -21z"/>
<path d="M4110 2353 c0 -5 -9 -71 -20 -148 -40 -273 -99 -450 -194 -585 -18
-25 -35 -51 -39 -57 -6 -9 41 -37 152 -93 l161 -80 476 0 476 0 -4 168 c-3
163 -4 168 -33 220 -53 97 -107 135 -421 297 -159 82 -347 179 -417 217 -136
72 -137 72 -137 61z"/>
<path d="M1905 2194 c-9 -43 -39 -145 -65 -226 -26 -82 -46 -148 -44 -148 3 0
49 26 104 57 l100 57 0 96 c-1 90 -3 99 -39 169 l-38 75 -18 -80z"/>
<path d="M3120 2045 l0 -110 98 -57 c53 -31 120 -68 148 -82 l52 -25 15 62
c16 60 15 62 -5 84 -12 13 -27 48 -33 79 l-11 57 -68 -65 -67 -64 -49 96 c-79
154 -79 154 -80 25z"/>
<path d="M410 2007 c-203 -116 -217 -126 -251 -177 -46 -70 -90 -178 -124
-305 -14 -55 -28 -108 -31 -117 -5 -17 22 -18 473 -18 263 0 484 4 492 9 16
10 17 8 -63 115 -70 92 -157 242 -205 353 -17 39 -31 74 -31 77 0 4 16 31 37
61 20 31 34 57 32 59 -8 7 -106 66 -110 66 -2 0 -101 -56 -219 -123z"/>
<path d="M1935 1770 c-9 -15 30 -213 61 -307 14 -43 46 -116 71 -163 51 -97
220 -353 314 -480 l64 -85 3 269 c1 148 1 271 -2 273 -5 5 -136 -45 -163 -62
-21 -14 -23 -12 -71 88 -27 56 -82 151 -120 211 -39 61 -86 145 -103 188 -32
76 -41 88 -54 68z"/>
<path d="M3140 1720 c-23 -61 -57 -123 -153 -273 -30 -48 -70 -122 -87 -165
-18 -42 -33 -78 -35 -80 -1 -2 -18 6 -37 18 -36 21 -149 62 -155 57 -2 -2 -2
-127 -1 -278 l3 -274 106 150 c235 332 322 494 367 680 41 168 46 211 28 218
-10 4 -20 -11 -36 -53z"/>
<path d="M1480 1534 c-597 -300 -634 -320 -696 -381 -34 -33 -68 -80 -85 -117
l-29 -61 0 -237 0 -238 832 0 833 0 -40 32 c-111 88 -202 205 -265 342 -79
168 -117 326 -155 639 -13 109 -25 200 -27 201 -2 2 -167 -80 -368 -180z"/>
<path d="M3265 1686 c-2 -17 -13 -107 -24 -201 -34 -285 -85 -484 -165 -643
-50 -99 -146 -222 -221 -283 -36 -29 -65 -54 -65 -56 0 -2 374 -3 830 -3 l830
0 0 238 c0 213 -2 241 -20 280 -30 67 -79 129 -134 171 -28 22 -270 149 -538
284 l-488 244 -5 -31z"/>
</g>
</svg>
